<?xml version="1.0" encoding="utf-8"?>
<!-- Generator: Adobe Illustrator 17.1.0, SVG Export Plug-In . SVG Version: 6.00 Build 0)  -->
<!DOCTYPE svg PUBLIC "-//W3C//DTD SVG 1.1//EN" "http://www.w3.org/Graphics/SVG/1.1/DTD/svg11.dtd">
<svg version="1.1" id="Camada_1" xmlns="http://www.w3.org/2000/svg" xmlns:xlink="http://www.w3.org/1999/xlink" x="0px" y="0px"
	 width="30px" height="22px" viewBox="0 0 30 22" style="enable-background:new 0 0 30 22;" xml:space="preserve">
<style type="text/css">
	.st0{fill-rule:evenodd;clip-rule:evenodd;fill:#FFFFFF;}
</style>
<g>
	<path class="st0" d="M22.8,8.9l-2.7,0L16.9,5H11L7.8,8.9H5v6h2.2h0.1c0-0.1,0-0.3,0-0.4c0-1.5,1.3-2.8,2.8-2.8s2.8,1.3,2.8,2.8
		c0,0.1,0,0.3,0,0.4h4c0-0.1,0-0.3,0-0.4c0-1.5,1.3-2.8,2.8-2.8s2.8,1.3,2.8,2.8c0,0.1,0,0.3,0,0.4H25v-4L22.8,8.9z M9.5,9.3l1.4-3
		h2.6l0.2,3H9.5z M14.2,9.3l0.2-3H17l1.4,3H14.2z"/>
	<circle class="st0" cx="10" cy="14.7" r="2.3"/>
	<circle class="st0" cx="19.6" cy="14.7" r="2.3"/>
</g>
</svg>
