<?xml version="1.0" encoding="utf-8"?>
<!-- Generator: Adobe Illustrator 17.1.0, SVG Export Plug-In . SVG Version: 6.00 Build 0)  -->
<!DOCTYPE svg PUBLIC "-//W3C//DTD SVG 1.1//EN" "http://www.w3.org/Graphics/SVG/1.1/DTD/svg11.dtd">
<svg version="1.1" id="Camada_1" xmlns="http://www.w3.org/2000/svg" xmlns:xlink="http://www.w3.org/1999/xlink" x="0px" y="0px"
	 width="30px" height="22px" viewBox="0 0 30 22" style="enable-background:new 0 0 30 22;" xml:space="preserve">
<style type="text/css">
	.st0{fill-rule:evenodd;clip-rule:evenodd;fill:#F5ACAF;}
</style>
<g>
	
		<image style="overflow:visible;" width="161" height="163" xlink:href="D1742D64.png"  transform="matrix(0.24 0 0 0.24 -4.9557 -8.4919)">
	</image>
	<g>
		<g>
			<circle class="st0" cx="10.9" cy="14.7" r="2.2"/>
			<path class="st0" d="M25,21l-4.1-4.3c0.7-0.3,1.3-1.1,1.3-2c0-1.2-1-2.2-2.2-2.2c-0.8,0-1.6,0.5-1.9,1.2l-0.4-0.4
				c0.5-0.8,1.3-1.3,2.3-1.3c1.4,0,2.6,1.2,2.6,2.6c0,0.1,0,0.3,0,0.4H25v-3.8l-2.1-1.9l-2.5,0l-3-3.7h-5.5l-0.7,0.9L4.9,0L3.5,0.7
				l6.7,7L8.9,9.4H6.2V15h2.1h0.1c0-0.1,0-0.2,0-0.4c0-1.4,1.2-2.6,2.6-2.6s2.6,1.2,2.6,2.6c0,0.1,0,0.3,0,0.4h3.6l6.6,6.9L25,21z
				 M15.1,6.9h2.4l1.3,2.8h-3.9L15.1,6.9z M11.7,6.9h2.4l0.2,2.8h-0.2l-2.5-2.6L11.7,6.9z M10.4,9.7L11,8.5l1.1,1.2H10.4z"/>
		</g>
	</g>
</g>
</svg>
