<?xml version="1.0" encoding="utf-8"?>
<!-- Generator: Adobe Illustrator 18.1.1, SVG Export Plug-In . SVG Version: 6.00 Build 0)  -->
<!DOCTYPE svg PUBLIC "-//W3C//DTD SVG 1.1//EN" "http://www.w3.org/Graphics/SVG/1.1/DTD/svg11.dtd">
<svg version="1.1" id="Camada_1" xmlns="http://www.w3.org/2000/svg" xmlns:xlink="http://www.w3.org/1999/xlink" x="0px" y="0px"
	 viewBox="0 0 595.3 841.9" enable-background="new 0 0 595.3 841.9" xml:space="preserve">
<g>
	
		<radialGradient id="SVGID_1_" cx="-588.6075" cy="545.198" r="0.228" gradientTransform="matrix(897.3595 0 0 -403.9855 528487.3125 221016.5469)" gradientUnits="userSpaceOnUse">
		<stop  offset="0" style="stop-color:#575757"/>
		<stop  offset="8.651142e-002" style="stop-color:#5C5C5C"/>
		<stop  offset="0.1941" style="stop-color:#6C6C6B"/>
		<stop  offset="0.3128" style="stop-color:#858584"/>
		<stop  offset="0.4386" style="stop-color:#A8A8A7"/>
		<stop  offset="0.5123" style="stop-color:#C0C0BF"/>
		<stop  offset="1" style="stop-color:#FFFFFF;stop-opacity:0"/>
	</radialGradient>
	<ellipse opacity="0.4" fill="url(#SVGID_1_)" enable-background="new    " cx="294.1" cy="764.7" rx="205.2" ry="70.2"/>
	<g>
		<g>
			<g>
				<path fill="#70706F" d="M297.6,0C192.4,0,34.5,47.4,34.5,238.5c0,96.5,210.5,429.7,263.1,526.2
					c52.6-96.5,263.1-429.7,263.1-526.2C560.7,47.4,402.9,0,297.6,0z"/>
			</g>
		</g>
		<defs>
			<filter id="Adobe_OpacityMaskFilter" filterUnits="userSpaceOnUse" x="34.5" y="0" width="526.2" height="764.7">
				<feColorMatrix  type="matrix" values="1 0 0 0 0  0 1 0 0 0  0 0 1 0 0  0 0 0 1 0"/>
			</filter>
		</defs>
		<mask maskUnits="userSpaceOnUse" x="34.5" y="0" width="526.2" height="764.7" id="SVGID_2_">
			<g filter="url(#Adobe_OpacityMaskFilter)">
			</g>
		</mask>
		<g mask="url(#SVGID_2_)">
			<g>
				<path fill="#70706F" d="M297.6,0C192.4,0,34.5,47.4,34.5,238.5c0,96.5,210.5,429.7,263.1,526.2
					c52.6-96.5,263.1-429.7,263.1-526.2C560.7,47.4,402.9,0,297.6,0z"/>
			</g>
		</g>
	</g>
	<polygon fill="#FFFFFF" points="136.3,98.2 448.5,424.5 474.8,401.7 164.3,78.9 	"/>
	<path fill="#FFFFFF" d="M413.4,240.3c14-5.3,35.1-19.3,29.8-36.8c-3.5-12.3-17.5-22.8-31.6-22.8h-87.7c1.8-21,8.8-47.4,1.8-75.4
		c-7-24.6-35.1-43.8-45.6-31.6c-5.3,3.5-3.5,12.3-3.5,29.8c0,36.8-15.8,75.4-35.1,94.7c-8.8,8.8-73.7,43.8-87.7,45.6L150.3,356
		c21,12.3,82.4,24.6,101.7,26.3c45.6,3.5,108.7,0,129.8-5.3c21-5.3,29.8-10.5,29.8-26.3c0-5.3-21-10.5-24.6-14
		c10.5-3.5,36.8-8.8,36.8-21c0-7-21-17.5-24.6-21c10.5-3.5,36.8-15.8,36.8-26.3C438,254.3,422.2,245.6,413.4,240.3z"/>
</g>
<g>
	<path opacity="0.75" fill="none" stroke="#464645" stroke-width="10" stroke-miterlimit="10" enable-background="new    " d="
		M297.6,5C194.3,5,39.1,51.6,39.1,239.4c0,94.8,206.8,422.2,258.5,517.1c51.7-94.8,258.5-422.2,258.5-517.1
		C556.2,51.6,401.1,5,297.6,5z"/>
</g>
</svg>
