<?xml version="1.0" encoding="utf-8"?>
<!-- Generator: Adobe Illustrator 17.1.0, SVG Export Plug-In . SVG Version: 6.00 Build 0)  -->
<!DOCTYPE svg PUBLIC "-//W3C//DTD SVG 1.1//EN" "http://www.w3.org/Graphics/SVG/1.1/DTD/svg11.dtd">
<svg version="1.1" id="Camada_1" xmlns="http://www.w3.org/2000/svg" xmlns:xlink="http://www.w3.org/1999/xlink" x="0px" y="0px"
	 width="30px" height="22px" viewBox="0 0 30 22" style="enable-background:new 0 0 30 22;" xml:space="preserve">
<style type="text/css">
	.st0{fill:#FFFFFF;}
</style>
<path class="st0" d="M21.6,11.9c0.8-0.3,2-1.1,1.7-2.1c-0.2-0.7-1-1.3-1.8-1.3l-5,0c0.1-1.2,0.5-2.7,0.1-4.3c-0.4-1.4-2-2.5-2.6-1.8
	C13.7,2.5,13.8,3,13.8,4c0,2.1-0.9,4.3-2,5.4c-0.5,0.5-4.2,2.5-5,2.6l-0.2,6.4c1.2,0.7,4.7,1.4,5.8,1.5c2.6,0.2,6.2,0,7.4-0.3
	c1.2-0.3,1.7-0.6,1.7-1.5c0-0.3-1.2-0.6-1.4-0.8c0.6-0.2,2.1-0.5,2.1-1.2c0-0.4-1.2-1-1.4-1.2c0.6-0.2,2.1-0.9,2.1-1.5
	C23,12.6,22.1,12.1,21.6,11.9z"/>
</svg>
