<?xml version="1.0" encoding="utf-8"?>
<!-- Generator: Adobe Illustrator 18.1.1, SVG Export Plug-In . SVG Version: 6.00 Build 0)  -->
<!DOCTYPE svg PUBLIC "-//W3C//DTD SVG 1.1//EN" "http://www.w3.org/Graphics/SVG/1.1/DTD/svg11.dtd">
<svg version="1.1" id="Camada_1" xmlns="http://www.w3.org/2000/svg" xmlns:xlink="http://www.w3.org/1999/xlink" x="0px" y="0px"
	 viewBox="0 0 595.3 841.9" enable-background="new 0 0 595.3 841.9" xml:space="preserve">
<radialGradient id="SVGID_1_" cx="-588.6075" cy="545.198" r="0.228" gradientTransform="matrix(897.3595 0 0 -403.9855 528487.3125 221016.5469)" gradientUnits="userSpaceOnUse">
	<stop  offset="0" style="stop-color:#575757"/>
	<stop  offset="8.651142e-002" style="stop-color:#5C5C5C"/>
	<stop  offset="0.1941" style="stop-color:#6C6C6B"/>
	<stop  offset="0.3128" style="stop-color:#858584"/>
	<stop  offset="0.4386" style="stop-color:#A8A8A7"/>
	<stop  offset="0.5123" style="stop-color:#C0C0BF"/>
	<stop  offset="1" style="stop-color:#FFFFFF;stop-opacity:0"/>
</radialGradient>
<ellipse opacity="0.4" fill="url(#SVGID_1_)" enable-background="new    " cx="294.1" cy="764.7" rx="205.2" ry="70.2"/>
<path fill="#F29107" d="M297.6,0C192.4,0,34.5,47.4,34.5,238.5c0,96.5,210.5,429.7,263.1,526.2c52.6-96.5,263.1-429.7,263.1-526.2
	C560.7,47.4,402.9,0,297.6,0z"/>
<g>
	<g>
		<polyline fill="#FFFFFF" points="165.2,323.9 126.4,323.9 126.4,218.1 175.8,218.1 232.1,149.5 336.2,149.5 392.6,218.1 
			438.4,218.1 478.9,253.4 478.9,323.9 		"/>
	</g>
	<g>
		<circle fill="#FFFFFF" cx="214.5" cy="316.9" r="40.6"/>
		<path fill="#F29107" d="M214.5,366.2c-27.3,0-49.4-22.1-49.4-49.4c0-27.3,22.1-49.4,49.4-49.4s49.4,22.1,49.4,49.4
			C263.9,344,241.8,366.2,214.5,366.2z M214.5,285.1c-17.5,0-31.8,14.3-31.8,31.8c0,17.5,14.3,31.8,31.8,31.8s31.8-14.3,31.8-31.8
			S232,285.1,214.5,285.1z"/>
	</g>
	<g>
		<circle fill="#FFFFFF" cx="382" cy="316.9" r="40.6"/>
		<path fill="#F29107" d="M382,366.2c-27.3,0-49.4-22.1-49.4-49.4c0-27.3,22.1-49.4,49.4-49.4c27.3,0,49.4,22.1,49.4,49.4
			C431.4,344,409.2,366.2,382,366.2z M382,285.1c-17.5,0-31.8,14.3-31.8,31.8c0,17.5,14.3,31.8,31.8,31.8
			c17.5,0,31.8-14.3,31.8-31.8S399.5,285.1,382,285.1z"/>
	</g>
	<g>
		<polygon fill="#F29107" points="204,225.2 278.1,225.2 274.5,170.6 228.7,170.6 		"/>
	</g>
	<g>
		<polygon fill="#F29107" points="362.6,225.2 288.6,225.2 292.1,170.6 337.9,170.6 		"/>
	</g>
</g>
<g>
	<path opacity="0.75" fill="none" stroke="#E8651B" stroke-width="10" stroke-miterlimit="10" enable-background="new    " d="
		M297.6,5C194.2,5,39.1,51.6,39.1,239.4c0,94.8,206.8,422.2,258.5,517.1c51.7-94.8,258.5-422.2,258.5-517.1
		C556.1,51.6,401.1,5,297.6,5z"/>
</g>
</svg>
