<?xml version="1.0" encoding="utf-8"?>
<!-- Generator: Adobe Illustrator 18.1.1, SVG Export Plug-In . SVG Version: 6.00 Build 0)  -->
<!DOCTYPE svg PUBLIC "-//W3C//DTD SVG 1.1//EN" "http://www.w3.org/Graphics/SVG/1.1/DTD/svg11.dtd">
<svg version="1.1" id="Camada_1" xmlns="http://www.w3.org/2000/svg" xmlns:xlink="http://www.w3.org/1999/xlink" x="0px" y="0px"
	 viewBox="0 0 595.3 841.9" enable-background="new 0 0 595.3 841.9" xml:space="preserve">
<radialGradient id="SVGID_1_" cx="-588.6075" cy="545.198" r="0.228" gradientTransform="matrix(897.2995 0 0 -403.9585 528451.9375 221001.7656)" gradientUnits="userSpaceOnUse">
	<stop  offset="0" style="stop-color:#575757"/>
	<stop  offset="8.651142e-002" style="stop-color:#5C5C5C"/>
	<stop  offset="0.1941" style="stop-color:#6C6C6B"/>
	<stop  offset="0.3128" style="stop-color:#858584"/>
	<stop  offset="0.4386" style="stop-color:#A8A8A7"/>
	<stop  offset="0.5123" style="stop-color:#C0C0BF"/>
	<stop  offset="1" style="stop-color:#FFFFFF;stop-opacity:0"/>
</radialGradient>
<ellipse opacity="0.4" fill="url(#SVGID_1_)" enable-background="new    " cx="294.1" cy="764.7" rx="205.2" ry="70.2"/>
<path fill="#005B95" d="M297.6,0C192.4,0,34.5,47.4,34.5,238.5c0,96.5,210.5,429.7,263.1,526.2c52.6-96.5,263.1-429.7,263.1-526.2
	C560.7,47.4,402.9,0,297.6,0z M297.6,329.3c-46.4,0-84-37.6-84-84c0-46.4,37.6-84,84-84c46.4,0,84,37.6,84,84
	C381.6,291.7,344,329.3,297.6,329.3z"/>
<g>
	<path opacity="0.75" fill="none" stroke="#033469" stroke-width="10" stroke-miterlimit="10" enable-background="new    " d="
		M297.6,5C194.2,5,39.1,51.6,39.1,239.4c0,94.8,206.8,422.2,258.5,517.1c51.7-94.8,258.5-422.2,258.5-517.1
		C556.1,51.6,401.1,5,297.6,5z"/>
</g>
</svg>
