<?xml version="1.0" encoding="utf-8"?>
<!-- Generator: Adobe Illustrator 17.1.0, SVG Export Plug-In . SVG Version: 6.00 Build 0)  -->
<!DOCTYPE svg PUBLIC "-//W3C//DTD SVG 1.1//EN" "http://www.w3.org/Graphics/SVG/1.1/DTD/svg11.dtd">
<svg version="1.1" id="Camada_1" xmlns="http://www.w3.org/2000/svg" xmlns:xlink="http://www.w3.org/1999/xlink" x="0px" y="0px"
	 width="32px" height="41px" viewBox="0 0 32 41" style="enable-background:new 0 0 32 41;" xml:space="preserve">
<style type="text/css">
	.st0{fill:url(#SVGID_1_);}
	.st1{fill:#70706F;}
	.st2{fill-rule:evenodd;clip-rule:evenodd;fill:#F29107;}
	.st3{fill:#F29107;}
</style>
<g>
	
		<radialGradient id="SVGID_1_" cx="-128.1729" cy="35.7651" r="4.6448" gradientTransform="matrix(2.9174 0 0 1.3134 389.7216 -11.2071)" gradientUnits="userSpaceOnUse">
		<stop  offset="0" style="stop-color:#575757"/>
		<stop  offset="8.651142e-002" style="stop-color:#5C5C5C"/>
		<stop  offset="0.1941" style="stop-color:#6C6C6B"/>
		<stop  offset="0.3128" style="stop-color:#858584"/>
		<stop  offset="0.4386" style="stop-color:#A8A8A7"/>
		<stop  offset="0.5123" style="stop-color:#C0C0BF"/>
		<stop  offset="1" style="stop-color:#FFFFFF;stop-opacity:0"/>
	</radialGradient>
	<ellipse class="st0" cx="15.8" cy="35.8" rx="13.6" ry="4.6"/>
	<g>
		<path class="st1" d="M32,26.3c0,3.1-2.6,5.7-5.7,5.7H5.7C2.5,32,0,29.4,0,26.3V5.7C0,2.6,2.5,0,5.7,0h20.7C29.5,0,32,2.6,32,5.7
			V26.3z"/>
	</g>
	<polygon class="st1" points="13.2,31.7 16.3,36.8 19.2,31.7 	"/>
	<polygon class="st2" points="5.2,6.3 26.8,28.9 28.1,27.9 6.6,5.5 	"/>
	<path class="st3" d="M22.6,15.6c0.8-0.3,2-1.1,1.7-2.1c-0.2-0.7-1-1.3-1.8-1.3h-5c0.1-1.2,0.5-2.7,0.1-4.3c-0.4-1.4-2-2.5-2.6-1.8
		c-0.2,0.2-0.2,0.8-0.2,1.7c0,2.1-0.9,4.3-2,5.4c-0.5,0.5-4.2,2.5-5,2.6l-0.2,6.4c1.2,0.7,4.7,1.4,5.8,1.5c2.6,0.2,6.2,0,7.4-0.3
		c1.2-0.3,1.7-0.6,1.7-1.5c0-0.3-1.2-0.6-1.4-0.8c0.6-0.2,2.1-0.5,2.1-1.2c0-0.4-1.2-1-1.4-1.2c0.6-0.2,2.1-0.9,2.1-1.5
		C24,16.4,23.1,15.9,22.6,15.6z"/>
</g>
</svg>
