<?xml version="1.0" encoding="utf-8"?>
<!-- Generator: Adobe Illustrator 17.1.0, SVG Export Plug-In . SVG Version: 6.00 Build 0)  -->
<!DOCTYPE svg PUBLIC "-//W3C//DTD SVG 1.1//EN" "http://www.w3.org/Graphics/SVG/1.1/DTD/svg11.dtd">
<svg version="1.1" id="Camada_1" xmlns="http://www.w3.org/2000/svg" xmlns:xlink="http://www.w3.org/1999/xlink" x="0px" y="0px"
	 width="32px" height="41px" viewBox="0 0 32 41" style="enable-background:new 0 0 32 41;" xml:space="preserve">
<style type="text/css">
	.st0{fill:url(#SVGID_1_);}
	.st1{fill:#F29107;}
	.st2{fill-rule:evenodd;clip-rule:evenodd;fill:#FFFFFF;}
	.st3{fill-rule:evenodd;clip-rule:evenodd;fill:#FFFFFF;stroke:#F29107;}
	.st4{fill-rule:evenodd;clip-rule:evenodd;fill:#F29107;}
</style>
<g>
	
		<radialGradient id="SVGID_1_" cx="-128.2431" cy="35.7651" r="4.6448" gradientTransform="matrix(2.9174 0 0 1.3134 389.7216 -11.2071)" gradientUnits="userSpaceOnUse">
		<stop  offset="0" style="stop-color:#575757"/>
		<stop  offset="8.651142e-002" style="stop-color:#5C5C5C"/>
		<stop  offset="0.1941" style="stop-color:#6C6C6B"/>
		<stop  offset="0.3128" style="stop-color:#858584"/>
		<stop  offset="0.4386" style="stop-color:#A8A8A7"/>
		<stop  offset="0.5123" style="stop-color:#C0C0BF"/>
		<stop  offset="1" style="stop-color:#FFFFFF;stop-opacity:0"/>
	</radialGradient>
	<ellipse class="st0" cx="15.6" cy="35.8" rx="13.6" ry="4.6"/>
	<g>
		<path class="st1" d="M32,26.3c0,3.1-2.6,5.7-5.7,5.7H5.7C2.5,32,0,29.4,0,26.3V5.7C0,2.6,2.5,0,5.7,0h20.7C29.5,0,32,2.6,32,5.7
			V26.3z"/>
	</g>
	<polygon class="st1" points="13,31.7 16.1,36.8 19,31.7 	"/>
	<g>
		<polyline class="st2" points="9,19.9 6.8,19.9 6.8,13.9 9.6,13.9 12.8,10 18.7,10 21.9,13.9 24.5,13.9 26.8,15.9 26.8,19.9 		"/>
		<circle class="st3" cx="11.8" cy="19.5" r="2.3"/>
		<circle class="st3" cx="21.3" cy="19.5" r="2.3"/>
		<polygon class="st4" points="11.2,14.3 15.4,14.3 15.2,11.2 12.6,11.2 		"/>
		<polygon class="st4" points="20.2,14.3 16,14.3 16.2,11.2 18.8,11.2 		"/>
	</g>
</g>
</svg>
