<?xml version="1.0" encoding="utf-8"?>
<!-- Generator: Adobe Illustrator 17.1.0, SVG Export Plug-In . SVG Version: 6.00 Build 0)  -->
<!DOCTYPE svg PUBLIC "-//W3C//DTD SVG 1.1//EN" "http://www.w3.org/Graphics/SVG/1.1/DTD/svg11.dtd">
<svg version="1.1" id="Camada_1" xmlns="http://www.w3.org/2000/svg" xmlns:xlink="http://www.w3.org/1999/xlink" x="0px" y="0px"
	 width="30px" height="22px" viewBox="0 0 30 22" style="enable-background:new 0 0 30 22;" xml:space="preserve">
<style type="text/css">
	.st0{fill-rule:evenodd;clip-rule:evenodd;fill:#FFFFFF;}
</style>
<g>
	<path class="st0" d="M23.7,9.3l-2.5,0l-3-3.7h-5.6l-3,3.7H6.9v5.7H9h0.1c0-0.1,0-0.3,0-0.4c0-1.5,1.2-2.6,2.6-2.6s2.6,1.2,2.6,2.6
		c0,0.1,0,0.3,0,0.4h3.8c0-0.1,0-0.3,0-0.4c0-1.5,1.2-2.6,2.6-2.6s2.6,1.2,2.6,2.6c0,0.1,0,0.3,0,0.4h2.5v-3.8L23.7,9.3z M11.2,9.7
		l1.3-2.8h2.4l0.2,2.8H11.2z M15.6,9.7l0.2-2.8h2.4l1.3,2.8H15.6z"/>
	<circle class="st0" cx="11.6" cy="14.8" r="2.2"/>
	<circle class="st0" cx="20.7" cy="14.8" r="2.2"/>
	<polygon class="st0" points="4.2,0.7 24.6,22 25.8,21.1 5.6,0 	"/>
</g>
</svg>
