<?xml version="1.0" encoding="utf-8"?>
<!-- Generator: Adobe Illustrator 19.0.0, SVG Export Plug-In . SVG Version: 6.00 Build 0)  -->
<svg version="1.1" id="Camada_1" xmlns="http://www.w3.org/2000/svg" xmlns:xlink="http://www.w3.org/1999/xlink" x="0px" y="0px"
	 width="99.6px" height="99.6px" viewBox="0 0 99.6 99.6" enable-background="new 0 0 99.6 99.6" xml:space="preserve">
<g>
	<circle fill="#5DA6D0" cx="49.8" cy="49.8" r="49.8"/>
</g>
<g>
	<g>
		<defs>
			<rect id="SVGID_1_" x="23.7" y="29.4" width="52.2" height="44.7"/>
		</defs>
		<clipPath id="SVGID_2_">
			<use xlink:href="#SVGID_1_"  overflow="visible"/>
		</clipPath>
		<path clip-path="url(#SVGID_2_)" fill="#FFFFFF" d="M38.3,71.6c0,1.4-1,2.5-2.4,2.5h-9.9c-1.4,0-2.4-1.1-2.4-2.5
			c0,0,0.4-14.4,0.4-20c0-5.5-0.4-19.7-0.4-19.7c0-1.4,1-2.5,2.4-2.5H36c1.4,0,2.4,1.1,2.4,2.5c0,0-0.4,14.1-0.4,19.7
			C37.9,57.2,38.3,71.6,38.3,71.6L38.3,71.6z M38.3,71.6"/>
	</g>
	<path fill="#FFFFFF" d="M73.8,29.4H43.1c-1.1,0-2,0.9-2,2V72c0,1.1,0.9,2,2,2h30.8c1.1,0,2-0.9,2-2V31.4
		C75.8,30.3,74.9,29.4,73.8,29.4L73.8,29.4z M52.6,68.1c0,0.7-0.6,1.2-1.2,1.2h-4.3c-0.7,0-1.2-0.6-1.2-1.2v-3.7
		c0-0.7,0.6-1.2,1.2-1.2h4.3c0.7,0,1.2,0.6,1.2,1.2V68.1z M52.6,60.2c0,0.7-0.6,1.2-1.2,1.2h-4.3c-0.7,0-1.2-0.6-1.2-1.2v-3.7
		c0-0.7,0.6-1.2,1.2-1.2h4.3c0.7,0,1.2,0.6,1.2,1.2V60.2z M52.6,52.2c0,0.7-0.6,1.2-1.2,1.2h-4.3c-0.7,0-1.2-0.6-1.2-1.2v-3.7
		c0-0.7,0.6-1.2,1.2-1.2h4.3c0.7,0,1.2,0.6,1.2,1.2V52.2z M61.8,68.1c0,0.7-0.6,1.2-1.2,1.2h-4.3c-0.7,0-1.2-0.6-1.2-1.2v-3.7
		c0-0.7,0.6-1.2,1.2-1.2h4.3c0.7,0,1.2,0.6,1.2,1.2V68.1z M61.8,60.2c0,0.7-0.6,1.2-1.2,1.2h-4.3c-0.7,0-1.2-0.6-1.2-1.2v-3.7
		c0-0.7,0.6-1.2,1.2-1.2h4.3c0.7,0,1.2,0.6,1.2,1.2V60.2z M61.8,52.2c0,0.7-0.6,1.2-1.2,1.2h-4.3c-0.7,0-1.2-0.6-1.2-1.2v-3.7
		c0-0.7,0.6-1.2,1.2-1.2h4.3c0.7,0,1.2,0.6,1.2,1.2V52.2z M71.1,68.1c0,0.7-0.6,1.2-1.2,1.2h-4.3c-0.7,0-1.2-0.6-1.2-1.2v-3.7
		c0-0.7,0.6-1.2,1.2-1.2h4.3c0.7,0,1.2,0.6,1.2,1.2V68.1z M71.1,60.2c0,0.7-0.6,1.2-1.2,1.2h-4.3c-0.7,0-1.2-0.6-1.2-1.2v-3.7
		c0-0.7,0.6-1.2,1.2-1.2h4.3c0.7,0,1.2,0.6,1.2,1.2V60.2z M71.1,52.2c0,0.7-0.6,1.2-1.2,1.2h-4.3c-0.7,0-1.2-0.6-1.2-1.2v-3.7
		c0-0.7,0.6-1.2,1.2-1.2h4.3c0.7,0,1.2,0.6,1.2,1.2V52.2z M71.1,40.2c0,0.7-0.6,1.2-1.2,1.2H47.1c-0.7,0-1.2-0.6-1.2-1.2v-3.7
		c0-0.7,0.6-1.2,1.2-1.2h22.8c0.7,0,1.2,0.6,1.2,1.2V40.2z M71.1,40.2"/>
</g>
</svg>
