<?xml version="1.0" encoding="utf-8"?>
<!-- Generator: Adobe Illustrator 17.1.0, SVG Export Plug-In . SVG Version: 6.00 Build 0)  -->
<!DOCTYPE svg PUBLIC "-//W3C//DTD SVG 1.1//EN" "http://www.w3.org/Graphics/SVG/1.1/DTD/svg11.dtd">
<svg version="1.1" id="Camada_1" xmlns="http://www.w3.org/2000/svg" xmlns:xlink="http://www.w3.org/1999/xlink" x="0px" y="0px"
	 width="100px" height="100px" viewBox="0 0 100 100" style="enable-background:new 0 0 100 100;" xml:space="preserve">
<style type="text/css">
	.st0{fill:#5EA6D1;}
	.st1{fill-rule:evenodd;clip-rule:evenodd;fill:#FFFFFF;}
</style>
<g>
	<circle class="st0" cx="50" cy="50" r="49.8"/>
</g>
<path class="st1" d="M73,68.6c-1.5,0-2.7-1.2-2.7-2.7V34.1c0-1.5,1.2-2.7,2.7-2.7c1.5,0,2.7,1.2,2.7,2.7v31.8
	C75.6,67.4,74.4,68.6,73,68.6L73,68.6z M59.7,65c0,2-1.6,3.5-3.5,3.5H40.3c-2,0-3.5-1.6-3.5-3.5v-7l-7.1-1.6V43.7l38.9-8.6v30
	l-8.9-2V65L59.7,65z M58,62.8l-19.4-4.3V65c0,1,0.8,1.8,1.8,1.8h15.9c1,0,1.8-0.8,1.8-1.8V62.8L58,62.8z M26.1,58
	c-1,0-1.8-0.8-1.8-1.8V43.8c0-1,0.8-1.8,1.8-1.8c1,0,1.8,0.8,1.8,1.8v12.4C27.9,57.2,27.1,58,26.1,58L26.1,58z"/>
</svg>
