<svg id="Camada_1" data-name="Camada 1" xmlns="http://www.w3.org/2000/svg" viewBox="0 0 99.63 99.63"><defs><style>.cls-1{fill:#5fa6d0;}.cls-2{fill:#fff;}</style></defs><title>ic-inicial-codigo-etica-conduta</title><circle class="cls-1" cx="49.82" cy="49.82" r="49.82"/><path class="cls-2" d="M76.09,54.23,68.16,38.31a1.66,1.66,0,0,0-.36-.48,1.5,1.5,0,0,0-.5-.3L58,34.19a5.91,5.91,0,0,0-4.12,0l-7.06,2.69a15.07,15.07,0,0,0-1.48.66l-.48.26a13.12,13.12,0,0,0-1.67-.76,12.78,12.78,0,0,0-5.59-.77l-4.75.41a1.45,1.45,0,0,0-.61.2,1.56,1.56,0,0,0-.48.45L21.05,52.6a1.71,1.71,0,0,0-.3,1.13,1.68,1.68,0,0,0,.48,1.06l4.65,4.61A3.78,3.78,0,0,0,29,65h.16a3.77,3.77,0,0,0,3.35,4.9A3.78,3.78,0,0,0,36,75.09,3.75,3.75,0,0,0,38.65,74a3.79,3.79,0,0,0,3.49,3.2h.25a3.74,3.74,0,0,0,1.31-.24,3.88,3.88,0,0,0,2.32.66,4,4,0,0,0,2.68-1.23l-2.56-2.55c0-.06,0-.12,0-.18A3.77,3.77,0,0,0,46,72.21l5.24,5.22a5.08,5.08,0,0,0,2.13.37,5.27,5.27,0,0,0,3.78-1.86l.52-.61a.84.84,0,0,0,.12-.19l-8.06-8a.57.57,0,0,1,0-.76.48.48,0,0,1,.71,0L60,75.89a4.46,4.46,0,0,0,1.66.25,4.63,4.63,0,0,0,3.32-1.64L66.22,73a1.88,1.88,0,0,0,.45-1.29l-8.42-8.39a.57.57,0,0,1,0-.76.48.48,0,0,1,.71,0L67.37,71a3.64,3.64,0,0,0,1.09.12,3.79,3.79,0,0,0,2.72-1.34l.34-.39a4.43,4.43,0,0,0-.21-5.94L69.06,61.2l.57.57,6.1-5.51a1.65,1.65,0,0,0,.52-.94A1.74,1.74,0,0,0,76.09,54.23Zm-47,9.12a2.15,2.15,0,0,1,.14-4.29h.14a2.15,2.15,0,1,1-.28,4.29Zm3.66,4.91a2.15,2.15,0,0,1-1.58-3.6l1.28-1.35.21-.22a2.15,2.15,0,1,1,3.12,3l-.6.63-.41.43-.07.07-.27.28-.12.13,0,0A2.13,2.13,0,0,1,32.73,68.26Zm4.8,4.54a2.15,2.15,0,0,1-3,.07,2.15,2.15,0,0,1-.11-3l1.07-1.13h0l.41-.44,1-1.1,0,0h0l.11-.12a2.15,2.15,0,1,1,3.12,3Zm4.72,2.75a2.15,2.15,0,0,1,.14-4.29h.14a2.15,2.15,0,0,1-.28,4.29ZM68.5,60.64,51.79,44h0L52,43.5a.91.91,0,0,0-.06-.79.79.79,0,0,0-.63-.4L50,42.23h0l-1.36-.08-.1,1.61a18.7,18.7,0,0,1-2.14,7c-1.91,3.39-4.45,4.56-4.83,4.64a7.1,7.1,0,0,1-1.26.16,1.47,1.47,0,0,1-.63-.11l-.63-.29a1.12,1.12,0,0,1-.58-.64,1.23,1.23,0,0,1,0-.86l6.36-14L46,39l.44-.17h0l8-3a4.49,4.49,0,0,1,1.56-.3h0a4.49,4.49,0,0,1,1.52.27l9.31,3.34L74.75,55Z"/><path class="cls-2" d="M77.55,28.15l-6.28,3.13a4,4,0,0,0-1.77,5.3l8.23,16.49A4,4,0,0,0,83,54.84l6.28-3.13ZM83,51.72a1.51,1.51,0,1,1,1.51-1.51A1.51,1.51,0,0,1,83,51.72Z"/><path class="cls-2" d="M8.41,48.11l5.74,4a3.95,3.95,0,0,0,5.5-1L30.25,36.11a3.95,3.95,0,0,0-1-5.5l-5.74-4Zm5-.77a1.51,1.51,0,1,1,1.27,1.72A1.51,1.51,0,0,1,13.36,47.34Z"/></svg>