<?xml version="1.0" encoding="utf-8"?>
<!-- Generator: Adobe Illustrator 17.1.0, SVG Export Plug-In . SVG Version: 6.00 Build 0)  -->
<!DOCTYPE svg PUBLIC "-//W3C//DTD SVG 1.1//EN" "http://www.w3.org/Graphics/SVG/1.1/DTD/svg11.dtd">
<svg version="1.1" id="Camada_1" xmlns="http://www.w3.org/2000/svg" xmlns:xlink="http://www.w3.org/1999/xlink" x="0px" y="0px"
	 width="100px" height="100px" viewBox="0 0 100 100" style="enable-background:new 0 0 100 100;" xml:space="preserve">
<style type="text/css">
	.st0{fill:#5EA6D1;}
	.st1{fill:#FFFFFF;}
	.st2{fill-rule:evenodd;clip-rule:evenodd;fill:#FFFFFF;}
</style>
<g>
	<circle class="st0" cx="50" cy="50" r="49.8"/>
	<g>
		<circle class="st1" cx="60.2" cy="37.3" r="5"/>
		<circle class="st1" cx="42.1" cy="37.3" r="5"/>
		<path class="st2" d="M78.6,45.9l-7.7-16.2c-0.4-1.1-0.8-1.6-2-1.7c-12.5,0-25,0.1-37.4,0.1c-1.2,0.1-1.6,0.6-2,1.6
			c-2.4,5.2-4.7,10.5-7.1,15.7h0c-2.5,1-4.2,3.4-4.2,6.3v5.7c0,3.7,3,6.8,6.8,6.8h1.1c0,0.2,0,0.3,0,0.5v7c0,2.4,1.9,4.3,4.3,4.3
			c2.4,0,4.3-1.9,4.3-4.3v-7c0-0.2,0-0.4,0-0.5h32.7c0,0.2,0,0.3,0,0.5v7c0,2.4,1.9,4.3,4.3,4.3c2.4,0,4.3-1.9,4.3-4.3v-7
			c0-0.2,0-0.4,0-0.6c3.3-0.5,5.8-3.3,5.8-6.7v-5.7C81.8,49.2,80.5,47.1,78.6,45.9z M33.7,31.5l0.7-1.6l3.1,0L66,29.9L72.8,44
			l-5.1,0c-0.9-3-3.9-5.2-7.5-5.2c-3.6,0-6.6,2.2-7.5,5.2l-24.4,0L33.7,31.5z M53.9,44c0.9-2.3,3.3-4,6.2-4c2.9,0,5.3,1.7,6.2,4
			L53.9,44z"/>
		<circle class="st0" cx="66.2" cy="55.2" r="4.8"/>
		<circle class="st0" cx="33.7" cy="55.2" r="4.8"/>
	</g>
</g>
</svg>
