<?xml version="1.0" encoding="utf-8"?>
<!-- Generator: Adobe Illustrator 18.1.1, SVG Export Plug-In . SVG Version: 6.00 Build 0)  -->
<!DOCTYPE svg PUBLIC "-//W3C//DTD SVG 1.1//EN" "http://www.w3.org/Graphics/SVG/1.1/DTD/svg11.dtd">
<svg version="1.1" id="Camada_1" xmlns="http://www.w3.org/2000/svg" xmlns:xlink="http://www.w3.org/1999/xlink" x="0px" y="0px"
	 viewBox="-286 378 39 38" enable-background="new -286 378 39 38" xml:space="preserve">
<g>
	<g>
		<path fill="#FFFFFF" d="M-261,399.7c-0.4,0.6-0.8,1.3-1.2,1.9c3.7,0.6,5.6,1.8,5.6,2.4c0,0.8-3.4,2.7-9.9,2.7
			c-6.5,0-9.9-1.9-9.9-2.7c0-0.6,1.9-1.8,5.6-2.4c-0.4-0.7-0.8-1.3-1.2-1.9c-3.7,0.7-6.5,2.2-6.5,4.3c0,3.2,6,4.8,12,4.8
			c6,0,12-1.7,12-4.8C-254.5,401.9-257.3,400.4-261,399.7z"/>
		<path fill="#FFFFFF" d="M-266.5,403.8c0.5,0,1-0.3,1.4-0.7c2-2.8,5.6-8.3,5.6-11.1c0-4-3.1-7.2-7-7.2c-3.9,0-7,3.2-7,7.2
			c0,2.8,3.6,8.3,5.6,11.1C-267.5,403.6-267,403.8-266.5,403.8z M-269.4,391.9c0-1.6,1.3-3,2.9-3c1.6,0,2.9,1.3,2.9,3
			c0,1.6-1.3,3-2.9,3C-268.1,394.9-269.4,393.5-269.4,391.9z"/>
	</g>
</g>
</svg>
