<?xml version="1.0" encoding="utf-8"?>
<!-- Generator: Adobe Illustrator 18.1.1, SVG Export Plug-In . SVG Version: 6.00 Build 0)  -->
<!DOCTYPE svg PUBLIC "-//W3C//DTD SVG 1.1//EN" "http://www.w3.org/Graphics/SVG/1.1/DTD/svg11.dtd">
<svg version="1.1" id="Camada_1" xmlns="http://www.w3.org/2000/svg" xmlns:xlink="http://www.w3.org/1999/xlink" x="0px" y="0px"
	 viewBox="-286 378 39 38" enable-background="new -286 378 39 38" xml:space="preserve">
<g>
	<path fill="#FFFFFF" d="M-251.5,388.2l-2.7-2.7c-0.4-0.4-0.8-0.6-1.4-0.6c-0.5,0-1,0.2-1.4,0.6l-13.2,13.2l-5.9-5.9
		c-0.4-0.4-0.8-0.6-1.4-0.6c-0.5,0-1,0.2-1.4,0.6l-2.7,2.7c-0.4,0.4-0.6,0.8-0.6,1.4c0,0.5,0.2,1,0.6,1.4l7.3,7.3l2.7,2.7
		c0.4,0.4,0.8,0.6,1.4,0.6c0.5,0,1-0.2,1.4-0.6l2.7-2.7l14.5-14.5c0.4-0.4,0.6-0.8,0.6-1.4C-250.9,389-251.1,388.6-251.5,388.2z"/>
</g>
</svg>
