<?xml version="1.0" encoding="utf-8"?>
<!-- Generator: Adobe Illustrator 17.1.0, SVG Export Plug-In . SVG Version: 6.00 Build 0)  -->
<!DOCTYPE svg PUBLIC "-//W3C//DTD SVG 1.1//EN" "http://www.w3.org/Graphics/SVG/1.1/DTD/svg11.dtd">
<svg version="1.1" id="Camada_1" xmlns="http://www.w3.org/2000/svg" xmlns:xlink="http://www.w3.org/1999/xlink" x="0px" y="0px"
	 width="39px" height="38px" viewBox="0 0 39 38" style="enable-background:new 0 0 39 38;" xml:space="preserve">
<style type="text/css">
	.st0{fill-rule:evenodd;clip-rule:evenodd;fill:#FFFFFF;}
</style>
<g>
	<path class="st0" d="M27.3,16.9l-2.7,0L21.4,13h-5.9l-3.2,3.9H9.5v6h2.2h0.1c0-0.1,0-0.3,0-0.4c0-1.5,1.3-2.8,2.8-2.8
		s2.8,1.3,2.8,2.8c0,0.1,0,0.3,0,0.4h4c0-0.1,0-0.3,0-0.4c0-1.5,1.3-2.8,2.8-2.8s2.8,1.3,2.8,2.8c0,0.1,0,0.3,0,0.4h2.7v-4
		L27.3,16.9z M14,17.3l1.4-3h2.6l0.2,3H14z M18.7,17.3l0.2-3h2.6l1.4,3H18.7z"/>
	<circle class="st0" cx="14.5" cy="22.7" r="2.3"/>
	<circle class="st0" cx="24.1" cy="22.7" r="2.3"/>
</g>
</svg>
