<?xml version="1.0" encoding="utf-8"?>
<!-- Generator: Adobe Illustrator 18.0.0, SVG Export Plug-In . SVG Version: 6.00 Build 0)  -->
<!DOCTYPE svg PUBLIC "-//W3C//DTD SVG 1.1//EN" "http://www.w3.org/Graphics/SVG/1.1/DTD/svg11.dtd">
<svg version="1.1" id="Camada_1" xmlns="http://www.w3.org/2000/svg" xmlns:xlink="http://www.w3.org/1999/xlink" x="0px" y="0px"
	 viewBox="0 0 39 38" enable-background="new 0 0 39 38" xml:space="preserve">
<path fill="#FFFFFF" d="M30.7,18.3c-1.3,0-2.6,0-4,0c0.2,2.3-0.5,4.6-2.3,6.4c-3.1,3.1-8.1,3.1-11.2,0c-3.1-3.1-3.1-8.1,0-11.2
	c2.6-2.6,6.7-3,9.7-1.1c-1,1-2.2,2.2-2.2,2.2c-0.9,0.9,0,1.5,0.6,1.5h7.7c0.3,0,0.5-0.2,0.5-0.5V8c0-0.7-0.8-1.4-1.5-0.6
	c0,0-1.3,1.3-2.2,2.2c-4.6-3.4-11.2-3-15.4,1.2c-4.6,4.6-4.6,12.1,0,16.8c4.6,4.6,12.1,4.6,16.8,0C29.8,25,30.9,21.6,30.7,18.3z"/>
</svg>
