<?xml version="1.0" encoding="utf-8"?>
<!-- Generator: Adobe Illustrator 17.1.0, SVG Export Plug-In . SVG Version: 6.00 Build 0)  -->
<!DOCTYPE svg PUBLIC "-//W3C//DTD SVG 1.1//EN" "http://www.w3.org/Graphics/SVG/1.1/DTD/svg11.dtd">
<svg version="1.1" id="Camada_1" xmlns="http://www.w3.org/2000/svg" xmlns:xlink="http://www.w3.org/1999/xlink" x="0px" y="0px"
	 width="30px" height="22px" viewBox="0 0 30 22" style="enable-background:new 0 0 30 22;" xml:space="preserve">
<g>
	<path d="M19.1,18.2c-0.4,0.4-0.9,0.7-1.5,0.8c-0.4,0.1-0.9,0.2-1.4,0.2c-2.5,0-5.9-1.4-8.8-4.7c-0.9-1-1.7-2.7-2.2-4.4
		C4.8,8.6,4.5,6.5,5.3,4.6C6.1,2.9,7.6,1.8,9.1,1c-1,0.3-1.9,0.8-2.6,1.5C1.4,7,4.6,16.2,8.3,19.1C14.7,24.2,18.5,21.4,19.1,18.2z"
		/>
	<path d="M23.1,2c-2.7-2-8.3-1.8-8.3-1.8c-3.4,0-7.6,1.4-9,4.7c-1.3,3,0.3,7.4,2,9.4c3.2,3.7,7.2,5,9.6,4.4c1-0.2,1.6-0.8,1.7-1.6
		l0,0c0-0.3-0.1-0.6-0.1-0.9c-0.4-1.4-1.9-2.9-4-4c-1.7-0.9-3.7-2.3-4.9-3.4c-3.2-2.9-2.7-4.8,0.3-5.8c1.3-0.4,2.9-0.7,4.6-0.7
		c0.1,0,0.3,0,0.4,0c0.1,0,0.1,0,0.2,0v0c0.3,0,7.5-0.2,8.3,2.6c0.5,1.8-0.3,3.9-2.3,6.3c-1.3,1.5-2.8,2.7-3.1,3
		c0.4,0.4,1.1,1.4,1.2,2.7c0.3,3-1.5,4.3-2.1,4.8c3.8-1.3,8.4-5.8,8.6-12.5C26.2,6,25.6,3.8,23.1,2z"/>
	<path d="M15.7,11.9c0,0,1.2,0.6,2.3,1.8c0.4-0.3,6.4-5,5.3-8.7c-0.2-0.7-1-1.2-2.1-1.5c2.1,1.2,1.3,3,0,4.4
		C19.1,10.2,15.7,11.9,15.7,11.9z"/>
</g>
</svg>
