<?xml version="1.0" encoding="utf-8"?>
<!-- Generator: Adobe Illustrator 17.1.0, SVG Export Plug-In . SVG Version: 6.00 Build 0)  -->
<!DOCTYPE svg PUBLIC "-//W3C//DTD SVG 1.1//EN" "http://www.w3.org/Graphics/SVG/1.1/DTD/svg11.dtd">
<svg version="1.1" id="Camada_1" xmlns="http://www.w3.org/2000/svg" xmlns:xlink="http://www.w3.org/1999/xlink" x="0px" y="0px"
	 width="32px" height="41px" viewBox="0 0 32 41" style="enable-background:new 0 0 32 41;" xml:space="preserve">
<style type="text/css">
	.st0{fill:url(#SVGID_1_);}
	.st1{fill:#39A8E0;}
	.st2{fill:#FFFFFF;}
</style>
<g>
	
		<radialGradient id="SVGID_1_" cx="-128.2431" cy="35.7651" r="4.6448" gradientTransform="matrix(2.9174 0 0 1.3134 389.7216 -11.2071)" gradientUnits="userSpaceOnUse">
		<stop  offset="0" style="stop-color:#575757"/>
		<stop  offset="8.651142e-002" style="stop-color:#5C5C5C"/>
		<stop  offset="0.1941" style="stop-color:#6C6C6B"/>
		<stop  offset="0.3128" style="stop-color:#858584"/>
		<stop  offset="0.4386" style="stop-color:#A8A8A7"/>
		<stop  offset="0.5123" style="stop-color:#C0C0BF"/>
		<stop  offset="1" style="stop-color:#FFFFFF;stop-opacity:0"/>
	</radialGradient>
	<ellipse class="st0" cx="15.6" cy="35.8" rx="13.6" ry="4.6"/>
	<g>
		<path class="st1" d="M32,26.3c0,3.1-2.6,5.7-5.7,5.7H5.7C2.5,32,0,29.4,0,26.3V5.7C0,2.6,2.5,0,5.7,0h20.7C29.5,0,32,2.6,32,5.7
			V26.3z"/>
	</g>
	<polygon class="st1" points="13,31.7 16.1,36.8 19,31.7 	"/>
	<g>
		<path class="st2" d="M19.8,23.8c-0.4,0.4-0.9,0.7-1.5,0.8c-0.4,0.1-0.9,0.2-1.4,0.2c-2.5,0-5.9-1.4-8.8-4.7
			c-0.9-1-1.7-2.7-2.2-4.4c-0.4-1.5-0.7-3.6,0.1-5.5c0.7-1.7,2.3-2.8,3.8-3.6C8.9,6.9,8,7.3,7.2,8C2.1,12.6,5.3,21.7,9,24.7
			C15.4,29.7,19.3,26.9,19.8,23.8z"/>
		<path class="st2" d="M23.9,7.5c-2.7-2-8.3-1.8-8.3-1.8c-3.4,0-7.6,1.4-9,4.7c-1.3,3,0.3,7.4,2,9.4c3.2,3.7,7.2,5,9.6,4.4
			c1-0.2,1.6-0.8,1.7-1.6l0,0c0-0.3-0.1-0.6-0.1-0.9c-0.4-1.4-1.9-2.9-4-4c-1.7-0.9-3.7-2.3-4.9-3.4c-3.2-2.9-2.7-4.8,0.3-5.8
			c1.3-0.4,2.9-0.7,4.6-0.7c0.1,0,0.3,0,0.4,0c0.1,0,0.1,0,0.2,0v0c0.3,0,7.5-0.2,8.3,2.6c0.5,1.8-0.3,3.9-2.3,6.3
			c-1.3,1.5-2.8,2.7-3.1,3c0.4,0.4,1.1,1.4,1.2,2.7c0.3,3-1.5,4.3-2.1,4.8c3.8-1.3,8.4-5.8,8.6-12.5C26.9,11.6,26.3,9.4,23.9,7.5z"
			/>
		<path class="st2" d="M16.5,17.5c0,0,1.2,0.6,2.3,1.8c0.4-0.3,6.4-5,5.3-8.7c-0.2-0.7-1-1.2-2.1-1.5c2.1,1.2,1.3,3,0,4.4
			C19.9,15.7,16.5,17.5,16.5,17.5z"/>
	</g>
</g>
</svg>
