<?xml version="1.0" encoding="utf-8"?>
<!-- Generator: Adobe Illustrator 17.1.0, SVG Export Plug-In . SVG Version: 6.00 Build 0)  -->
<!DOCTYPE svg PUBLIC "-//W3C//DTD SVG 1.1//EN" "http://www.w3.org/Graphics/SVG/1.1/DTD/svg11.dtd">
<svg version="1.1" id="Camada_1" xmlns="http://www.w3.org/2000/svg" xmlns:xlink="http://www.w3.org/1999/xlink" x="0px" y="0px"
	 width="39px" height="38px" viewBox="0 0 39 38" style="enable-background:new 0 0 39 38;" xml:space="preserve">
<style type="text/css">
	.st0{fill-rule:evenodd;clip-rule:evenodd;fill:#E95C0C;}
</style>
<g>
	
		<image style="overflow:visible;" width="167" height="169" xlink:href="7AA8D346.png"  transform="matrix(0.24 0 0 0.24 -0.4506 -1.2242)">
	</image>
	<g>
		<g>
			<circle class="st0" cx="15.9" cy="23" r="2.3"/>
			<path class="st0" d="M30.9,29.7l-4.4-4.6c0.8-0.4,1.3-1.2,1.3-2.1c0-1.3-1-2.3-2.3-2.3c-0.9,0-1.7,0.5-2,1.3l-0.4-0.4
				c0.5-0.8,1.4-1.4,2.4-1.4c1.5,0,2.8,1.3,2.8,2.8c0,0.1,0,0.3,0,0.4h2.7v-4l-2.2-2.1l-2.7,0l-3.2-3.9H17l-0.8,1l-6.7-7L8.1,8.1
				l7.1,7.5l-1.4,1.7h-2.8v6h2.2h0.1c0-0.1,0-0.3,0-0.4c0-1.5,1.3-2.8,2.8-2.8s2.8,1.3,2.8,2.8c0,0.1,0,0.3,0,0.4h3.9l7.1,7.4
				L30.9,29.7z M20.4,14.6H23l1.4,3h-4.2L20.4,14.6z M16.8,14.6h2.6l0.2,3h-0.2l-2.7-2.8L16.8,14.6z M15.4,17.6l0.6-1.3l1.2,1.3
				H15.4z"/>
		</g>
	</g>
</g>
</svg>
