<?xml version="1.0" encoding="utf-8"?>
<!-- Generator: Adobe Illustrator 17.1.0, SVG Export Plug-In . SVG Version: 6.00 Build 0)  -->
<!DOCTYPE svg PUBLIC "-//W3C//DTD SVG 1.1//EN" "http://www.w3.org/Graphics/SVG/1.1/DTD/svg11.dtd">
<svg version="1.1" id="Camada_1" xmlns="http://www.w3.org/2000/svg" xmlns:xlink="http://www.w3.org/1999/xlink" x="0px" y="0px"
	 width="39px" height="38px" viewBox="0 0 39 38" style="enable-background:new 0 0 39 38;" xml:space="preserve">
<style type="text/css">
	.st0{fill:#FFFFFF;}
</style>
<g>
	<g>
		<path class="st0" d="M30.3,11.6c0,0.8-0.6,1.4-1.4,1.4H10.1c-0.8,0-1.4-0.6-1.4-1.4V8.4C8.7,7.6,9.3,7,10.1,7h18.8
			c0.8,0,1.4,0.6,1.4,1.4V11.6z"/>
	</g>
	<g>
		<path class="st0" d="M30.3,20.5c0,0.8-0.6,1.4-1.4,1.4H10.1c-0.8,0-1.4-0.6-1.4-1.4v-3.3c0-0.8,0.6-1.4,1.4-1.4h18.8
			c0.8,0,1.4,0.6,1.4,1.4V20.5z"/>
	</g>
	<g>
		<path class="st0" d="M30.3,29.6c0,0.8-0.6,1.4-1.4,1.4H10.1c-0.8,0-1.4-0.6-1.4-1.4v-3.3c0-0.8,0.6-1.4,1.4-1.4h18.8
			c0.8,0,1.4,0.6,1.4,1.4V29.6z"/>
	</g>
</g>
</svg>
