<?xml version="1.0" encoding="utf-8"?>
<!-- Generator: Adobe Illustrator 17.1.0, SVG Export Plug-In . SVG Version: 6.00 Build 0)  -->
<!DOCTYPE svg PUBLIC "-//W3C//DTD SVG 1.1//EN" "http://www.w3.org/Graphics/SVG/1.1/DTD/svg11.dtd">
<svg version="1.1" id="Camada_1" xmlns="http://www.w3.org/2000/svg" xmlns:xlink="http://www.w3.org/1999/xlink" x="0px" y="0px"
	 width="39px" height="38px" viewBox="0 0 39 38" style="enable-background:new 0 0 39 38;" xml:space="preserve">
<style type="text/css">
	.st0{fill-rule:evenodd;clip-rule:evenodd;fill:#E95C0C;}
</style>
<g>
	
		<image style="overflow:visible;" width="167" height="169" xlink:href="D51F7CC9.png"  transform="matrix(0.24 0 0 0.24 -0.4506 -1.2242)">
	</image>
	<g>
		<path class="st0" d="M30.9,29.7l-4.7-4.9c0.6-0.2,1.3-0.5,1.3-0.9c0-0.4-1.2-1-1.4-1.2c0.6-0.2,2.1-0.9,2.1-1.5
			c0-0.6-1-1.1-1.5-1.4c0.8-0.3,2-1.1,1.7-2.1c-0.2-0.7-1-1.3-1.8-1.3h-5c0.1-1.2,0.5-2.7,0.1-4.3c-0.4-1.4-2-2.5-2.6-1.8
			c-0.2,0.2-0.2,0.8-0.2,1.7c0,1.5-0.5,3-1.1,4.2L9.5,7.3L8.1,8.1l8.9,9.3c-0.7,0.6-4.2,2.5-4.9,2.5l-0.2,6.4
			c1.2,0.7,4.7,1.4,5.8,1.5c2.6,0.2,6.2,0,7.4-0.3c0.5-0.1,0.8-0.2,1.1-0.4l3.6,3.7L30.9,29.7z"/>
	</g>
</g>
</svg>
