<?xml version="1.0" encoding="utf-8"?>
<!-- Generator: Adobe Illustrator 18.1.1, SVG Export Plug-In . SVG Version: 6.00 Build 0)  -->
<!DOCTYPE svg PUBLIC "-//W3C//DTD SVG 1.1//EN" "http://www.w3.org/Graphics/SVG/1.1/DTD/svg11.dtd">
<svg version="1.1" id="Camada_1" xmlns="http://www.w3.org/2000/svg" xmlns:xlink="http://www.w3.org/1999/xlink" x="0px" y="0px"
	 viewBox="0 0 595.3 841.9" enable-background="new 0 0 595.3 841.9" xml:space="preserve">
<radialGradient id="SVGID_1_" cx="-588.6079" cy="545.197" r="0.2281" gradientTransform="matrix(897.4194 0 0 -404.013 528522.875 221031.5625)" gradientUnits="userSpaceOnUse">
	<stop  offset="0" style="stop-color:#575757"/>
	<stop  offset="8.651142e-002" style="stop-color:#5C5C5C"/>
	<stop  offset="0.1941" style="stop-color:#6C6C6B"/>
	<stop  offset="0.3128" style="stop-color:#858584"/>
	<stop  offset="0.4386" style="stop-color:#A8A8A7"/>
	<stop  offset="0.5123" style="stop-color:#C0C0BF"/>
	<stop  offset="1" style="stop-color:#FFFFFF;stop-opacity:0"/>
</radialGradient>
<ellipse opacity="0.4" fill="url(#SVGID_1_)" enable-background="new    " cx="294.1" cy="764.7" rx="205.2" ry="70.2"/>
<path fill="#FFFFFF" d="M297.6,0C192.4,0,34.5,47.4,34.5,238.5c0,96.5,210.5,429.7,263.1,526.2c52.6-96.5,263.1-429.7,263.1-526.2
	C560.7,47.4,402.9,0,297.6,0z"/>
<g>
	<linearGradient id="SVGID_2_" gradientUnits="userSpaceOnUse" x1="306.1615" y1="386.227" x2="306.1615" y2="83.1425">
		<stop  offset="0" style="stop-color:#5DA6D0"/>
		<stop  offset="0.3855" style="stop-color:#3888B8"/>
		<stop  offset="1" style="stop-color:#005B95"/>
	</linearGradient>
	<path fill="url(#SVGID_2_)" d="M333.5,386.2c9.2-6.2,33.8-25.4,29.8-67.3c-2.4-24.9-19.7-41.4-19.7-41.4s45-28.6,64.1-67.7
		c15.6-32.1,24.4-68-13.1-83.8c-23-9.7-54.5-12.9-96.7-12.9c-24.7,0-46.8,3.8-65.3,9.6c-42.8,13.4-49.5,40.5-4.1,81.4
		c16.5,14.9,45.3,34.7,69.1,47.3c30.4,16.1,51.1,37.4,57,57.1c4.9,16.4,2.3,31.9-16.8,37.4c-35.6,10.4-97.9-10.8-139.4-53.5
		c-24.2-25-65.9-107.4-21.2-168.5c19.3-26.3,68.8-40.9,118.7-40.9c0,0,78.6-2.8,116.8,26.1c34.5,26.1,43.5,57.2,42.4,100
		C452.5,304.4,387.4,367.5,333.5,386.2z"/>
	<linearGradient id="SVGID_3_" gradientUnits="userSpaceOnUse" x1="140.1211" y1="236.986" x2="356.7677" y2="236.986">
		<stop  offset="0" style="stop-color:#5DA6D0"/>
		<stop  offset="0.3855" style="stop-color:#3888B8"/>
		<stop  offset="1" style="stop-color:#005B95"/>
	</linearGradient>
	<path fill="url(#SVGID_3_)" d="M295.7,83.4c-49.9,0-99.4,14.6-118.7,40.9c-44.3,60.1-2.3,144.2,21.4,168.3
		c41.7,42.6,102.3,63.7,139,53.6c16.9-4.6,19.5-17.1,19.3-23.2c3.8,49.1-52.3,108.4-153.2,28.4c-52.4-41.6-98.2-170.6-25.6-235.2
		C217.8,80.6,295.7,83.4,295.7,83.4z"/>
	<linearGradient id="SVGID_4_" gradientUnits="userSpaceOnUse" x1="278.6235" y1="149.0414" x2="402.1772" y2="220.3751">
		<stop  offset="0" style="stop-color:#5DA6D0"/>
		<stop  offset="0.3855" style="stop-color:#3888B8"/>
		<stop  offset="1" style="stop-color:#005B95"/>
	</linearGradient>
	<path fill="url(#SVGID_4_)" d="M341.6,275.5c-16.1-16.3-33.3-25.6-33.3-25.6s48-24.9,78-57.7c20.9-22.8,33.4-52.6-14.9-68.4
		c-33.9-11.1-72.2-10.6-72.2-10.6s63.2-1.5,93.3,11.5c15.5,6.6,49.1,22.5,12.8,90c-19.2,35.7-61.8,62.8-61.8,62.8L341.6,275.5z"/>
</g>
<path fill="none" stroke="#ADADAD" stroke-width="15" stroke-miterlimit="10" d="M297.6,17.1c-97.7,0-244.4,44-244.4,221.6
	c0,89.6,195.6,399.2,244.4,488.8C346.5,637.9,542,328.4,542,238.7C542,61.2,395.4,17.1,297.6,17.1z"/>
</svg>
