<?xml version="1.0" encoding="utf-8"?>
<!-- Generator: Adobe Illustrator 17.1.0, SVG Export Plug-In . SVG Version: 6.00 Build 0)  -->
<!DOCTYPE svg PUBLIC "-//W3C//DTD SVG 1.1//EN" "http://www.w3.org/Graphics/SVG/1.1/DTD/svg11.dtd">
<svg version="1.1" id="Camada_1" xmlns="http://www.w3.org/2000/svg" xmlns:xlink="http://www.w3.org/1999/xlink" x="0px" y="0px"
	 width="39px" height="38px" viewBox="0 0 39 38" style="enable-background:new 0 0 39 38;" xml:space="preserve">
<style type="text/css">
	.st0{fill:#FFFFFF;}
</style>
<g>
	<g>
		<path class="st0" d="M36.1,20.6l-2.7-0.7c0-0.3,0-0.7,0-1c0-1-0.1-2-0.3-3l2.6-0.5c0.6-1,0.1-2.1-0.6-2.6l-2.7,0.6
			C31.7,12.1,31,11,30.2,10l2-1.6c0.1-1.2-0.9-1.9-1.8-2l-2.1,1.8c-1-0.8-2.2-1.5-3.5-2l1-2.4c-0.5-1.1-1.7-1.3-2.5-1l-1,2.6
			c-0.9-0.2-1.7-0.3-2.6-0.3h-0.1c-0.4,0-0.8,0-1.3,0.1L18,2.5c-0.9-0.7-2.1-0.4-2.7,0.3l0.3,2.8c-1.3,0.4-2.5,1-3.6,1.7l-1.4-2.2
			c-1.1-0.2-2,0.6-2.2,1.5L9.9,9c-1,0.9-1.8,2-2.4,3.2l-2.3-1.3c-1.1,0.3-1.5,1.5-1.3,2.4l2.5,1.3c-0.4,1.3-0.6,2.6-0.7,4l-2.6-0.1
			c-0.8,0.8-0.6,2,0,2.7L6,21.2c0.2,1.3,0.7,2.6,1.2,3.8l-2.4,1.1c-0.3,1.1,0.4,2.1,1.3,2.4l2.5-1.3c0.8,1.1,1.8,2,2.9,2.8l-1.6,2.1
			c0.2,1.1,1.3,1.7,2.2,1.5l1.6-2.3c1.2,0.6,2.5,0.9,3.9,1.1l-0.4,2.6c0.6,0.8,1.5,0.9,2.3,0.5c0.1-0.1,0.3-0.1,0.4-0.2l0.4-2.8
			c1.4-0.1,2.7-0.3,3.9-0.8l0.8,2.5c1,0.5,2.1-0.1,2.5-1l-0.9-2.6c1.2-0.7,2.2-1.5,3.1-2.5l1.9,1.8c1.1-0.1,1.8-1.1,1.8-2l-2.1-1.9
			c0.7-1.1,1.2-2.4,1.6-3.7l2.5,0.7C36.4,22.6,36.5,21.4,36.1,20.6z M19.6,25.8h-0.1c-3.8-0.1-6.8-3.1-6.8-6.9
			c0-3.8,3.1-6.9,6.8-6.9l0.1,0c3.8,0,6.9,3.1,6.9,6.9C26.6,22.7,23.4,25.8,19.6,25.8z"/>
	</g>
</g>
</svg>
